
<svg width="30px" height="30px" viewBox="0 0 30 30" version="1.1" xmlns="http://www.w3.org/2000/svg" xmlns:xlink="http://www.w3.org/1999/xlink">
    <g id="IME-Home-Page" stroke="none" stroke-width="1" fill="none" fill-rule="evenodd">
        <g id="Group-15">
            <rect id="Rectangle" fill="#FFFFFF" x="0" y="0" width="30" height="30" rx="5"></rect>
            <path d="M24.6525695,7.35352223 C24.3929053,7.11790102 24.0842178,7 23.7269055,7 C23.3699918,7 23.061105,7.11790102 22.8014408,7.35352223 L12.2965,16.8857834 L8.02668808,13.0109628 C7.76682461,12.7751608 7.45833638,12.6574406 7.10122339,12.6574406 C6.7441104,12.6574406 6.43562218,12.7751608 6.17575871,13.0109628 L4.3897952,14.6315593 C4.12993173,14.8673614 4,15.1472859 4,15.4715137 C4,15.7955606 4.12993173,16.0754851 4.3897952,16.3112872 L11.3712345,22.6462969 C11.631098,22.8822798 11.9395862,23 12.2966992,23 C12.6538122,23 12.9623005,22.8822798 13.2221639,22.6462969 L26.438533,10.6538466 C26.6981972,10.4182254 26.8283282,10.13812 26.8283282,9.81407308 C26.8283282,9.49002611 26.6983965,9.20992077 26.4387323,8.97429957 L24.6525695,7.35352223 Z" id="Shape-Copy-6" fill="#032E3D"></path>
        </g>
    </g>
</svg>
